<svg width="1112" height="257" viewBox="0 0 1112 257" fill="none" xmlns="http://www.w3.org/2000/svg">
<path d="M315 25.5L292.5 6V34.5C292.5 40.5 287.5 41.6667 285 41.5H257.5C256.948 41.5 256.5 41.9477 256.5 42.5V178.5C256.5 179.052 256.948 179.5 257.5 179.5H271C272.105 179.5 273 178.605 273 177.5V71.5C273 70.3954 273.895 69.5 275 69.5H314C314.552 69.5 315 69.0523 315 68.5V25.5Z" fill="#FF0000"/>
<path d="M3 34H38C39.1046 34 40 34.8954 40 36V184.5C40 185.605 39.1046 186.5 38 186.5H3C1.89543 186.5 1 187.395 1 188.5V216.5C1 217.605 1.89543 218.5 3 218.5H120.5C121.605 218.5 122.5 217.605 122.5 216.5V188.5C122.5 187.395 121.605 186.5 120.5 186.5H94.5C93.3954 186.5 92.5 185.605 92.5 184.5V122.5C92.5 121.395 93.3954 120.5 94.5 120.5H192.5C193.605 120.5 194.5 121.395 194.5 122.5V184.5C194.5 185.605 193.605 186.5 192.5 186.5H166.5C165.395 186.5 164.5 187.395 164.5 188.5V216.5C164.5 217.605 165.395 218.5 166.5 218.5H290C291.105 218.5 292 217.605 292 216.5V188.5C292 187.395 291.105 186.5 290 186.5H249.5C248.395 186.5 247.5 185.605 247.5 184.5V36C247.5 34.8954 248.395 34 249.5 34H283.5C284.605 34 285.5 33.1046 285.5 32V3C285.5 1.89543 284.605 1 283.5 1H166.5C165.395 1 164.5 1.89543 164.5 3V32C164.5 33.1046 165.395 34 166.5 34H192.5C193.605 34 194.5 34.8954 194.5 36V87C194.5 88.1046 193.605 89 192.5 89H94.5C93.3954 89 92.5 88.1046 92.5 87V36C92.5 34.8954 93.3954 34 94.5 34H121.5C122.605 34 123.5 33.1046 123.5 32V3C123.5 1.89543 122.605 1 121.5 1H3C1.89543 1 1 1.89543 1 3V32C1 33.1046 1.89543 34 3 34Z" fill="#FF0000"/>
<path d="M32.5 67.5V44C32.5 42.8954 31.6046 42 30.5 42H8C6.89543 42 6 42.8954 6 44V67.5C6 68.6046 6.89543 69.5 8 69.5H30.5C31.6046 69.5 32.5 68.6046 32.5 67.5Z" fill="#FF0000"/>
<path d="M123.5 42H101C99.8954 42 99 42.8954 99 44V81C99 82.1046 99.8954 83 101 83H106C107.105 83 108 82.1046 108 81V71C108 69.8954 108.895 69 110 69H152.025C153.119 69 154.011 68.1195 154.024 67.0247L154.489 29.3934C154.496 28.8249 154.261 28.2802 153.842 27.8957L131.676 7.53956C131.035 6.95072 130 7.39999 130 8.27053V37C130 41 125.667 42 123.5 42Z" fill="#FF0000"/>
<path d="M7.5 228V255.5C7.5 256.052 7.94772 256.5 8.5 256.5H155.5C156.052 256.5 156.5 256.052 156.5 255.5V202L130.5 190V227H8.5C7.94772 227 7.5 227.448 7.5 228Z" fill="#FF0000"/>
<path d="M184.5 228V255.5C184.5 256.052 184.948 256.5 185.5 256.5H314C314.552 256.5 315 256.052 315 255.5V205L297 189V227H185.5C184.948 227 184.5 227.448 184.5 228Z" fill="#FF0000"/>
<path d="M187 128.5H102.5C101.395 128.5 100.5 129.395 100.5 130.5V177.5C100.5 178.605 101.395 179.5 102.5 179.5H104.5C105.605 179.5 106.5 178.605 106.5 177.5V156.5C106.5 155.395 107.395 154.5 108.5 154.5H187C188.105 154.5 189 153.605 189 152.5V130.5C189 129.395 188.105 128.5 187 128.5Z" fill="#FF0000"/>
<path d="M185.5 68.5H187.5C188.052 68.5 188.5 68.0523 188.5 67.5V42.5C188.5 41.9477 188.052 41.5 187.5 41.5H185.5C184.948 41.5 184.5 41.9477 184.5 42.5V67.5C184.5 68.0523 184.948 68.5 185.5 68.5Z" fill="#FF0000"/>
<path d="M315 25.5L292.5 6V34.5C292.5 40.5 287.5 41.6667 285 41.5H257.5C256.948 41.5 256.5 41.9477 256.5 42.5V178.5C256.5 179.052 256.948 179.5 257.5 179.5H271C272.105 179.5 273 178.605 273 177.5V71.5C273 70.3954 273.895 69.5 275 69.5H314C314.552 69.5 315 69.0523 315 68.5V25.5Z" stroke="#A10003"/>
<path d="M3 34H38C39.1046 34 40 34.8954 40 36V184.5C40 185.605 39.1046 186.5 38 186.5H3C1.89543 186.5 1 187.395 1 188.5V216.5C1 217.605 1.89543 218.5 3 218.5H120.5C121.605 218.5 122.5 217.605 122.5 216.5V188.5C122.5 187.395 121.605 186.5 120.5 186.5H94.5C93.3954 186.5 92.5 185.605 92.5 184.5V122.5C92.5 121.395 93.3954 120.5 94.5 120.5H192.5C193.605 120.5 194.5 121.395 194.5 122.5V184.5C194.5 185.605 193.605 186.5 192.5 186.5H166.5C165.395 186.5 164.5 187.395 164.5 188.5V216.5C164.5 217.605 165.395 218.5 166.5 218.5H290C291.105 218.5 292 217.605 292 216.5V188.5C292 187.395 291.105 186.5 290 186.5H249.5C248.395 186.5 247.5 185.605 247.5 184.5V36C247.5 34.8954 248.395 34 249.5 34H283.5C284.605 34 285.5 33.1046 285.5 32V3C285.5 1.89543 284.605 1 283.5 1H166.5C165.395 1 164.5 1.89543 164.5 3V32C164.5 33.1046 165.395 34 166.5 34H192.5C193.605 34 194.5 34.8954 194.5 36V87C194.5 88.1046 193.605 89 192.5 89H94.5C93.3954 89 92.5 88.1046 92.5 87V36C92.5 34.8954 93.3954 34 94.5 34H121.5C122.605 34 123.5 33.1046 123.5 32V3C123.5 1.89543 122.605 1 121.5 1H3C1.89543 1 1 1.89543 1 3V32C1 33.1046 1.89543 34 3 34Z" stroke="#A10003"/>
<path d="M32.5 67.5V44C32.5 42.8954 31.6046 42 30.5 42H8C6.89543 42 6 42.8954 6 44V67.5C6 68.6046 6.89543 69.5 8 69.5H30.5C31.6046 69.5 32.5 68.6046 32.5 67.5Z" stroke="#A10003"/>
<path d="M123.5 42H101C99.8954 42 99 42.8954 99 44V81C99 82.1046 99.8954 83 101 83H106C107.105 83 108 82.1046 108 81V71C108 69.8954 108.895 69 110 69H152.025C153.119 69 154.011 68.1195 154.024 67.0247L154.489 29.3934C154.496 28.8249 154.261 28.2802 153.842 27.8957L131.676 7.53956C131.035 6.95072 130 7.39999 130 8.27053V37C130 41 125.667 42 123.5 42Z" stroke="#A10003"/>
<path d="M7.5 228V255.5C7.5 256.052 7.94772 256.5 8.5 256.5H155.5C156.052 256.5 156.5 256.052 156.5 255.5V202L130.5 190V227H8.5C7.94772 227 7.5 227.448 7.5 228Z" stroke="#A10003"/>
<path d="M184.5 228V255.5C184.5 256.052 184.948 256.5 185.5 256.5H314C314.552 256.5 315 256.052 315 255.5V205L297 189V227H185.5C184.948 227 184.5 227.448 184.5 228Z" stroke="#A10003"/>
<path d="M187 128.5H102.5C101.395 128.5 100.5 129.395 100.5 130.5V177.5C100.5 178.605 101.395 179.5 102.5 179.5H104.5C105.605 179.5 106.5 178.605 106.5 177.5V156.5C106.5 155.395 107.395 154.5 108.5 154.5H187C188.105 154.5 189 153.605 189 152.5V130.5C189 129.395 188.105 128.5 187 128.5Z" stroke="#A10003"/>
<path d="M185.5 68.5H187.5C188.052 68.5 188.5 68.0523 188.5 67.5V42.5C188.5 41.9477 188.052 41.5 187.5 41.5H185.5C184.948 41.5 184.5 41.9477 184.5 42.5V67.5C184.5 68.0523 184.948 68.5 185.5 68.5Z" stroke="#A10003"/>
<path d="M375.5 150.318V28.6632H408.626V76.1846H452.477V28.6632H485.603V150.318H452.477V102.797H408.626V150.318H375.5Z" fill="#0B387B"/>
<path d="M619.537 89.4906C619.537 103.034 616.896 114.459 611.613 123.765C606.331 133.032 599.201 140.061 590.224 144.853C581.248 149.605 571.238 151.981 560.196 151.981C549.075 151.981 539.026 149.585 530.049 144.794C521.112 139.962 514.002 132.913 508.72 123.647C503.477 114.34 500.855 102.955 500.855 89.4906C500.855 75.947 503.477 64.5419 508.72 55.2752C514.002 45.9689 521.112 38.9397 530.049 34.1876C539.026 29.3959 549.075 27 560.196 27C571.238 27 581.248 29.3959 590.224 34.1876C599.201 38.9397 606.331 45.9689 611.613 55.2752C616.896 64.5419 619.537 75.947 619.537 89.4906ZM585.458 89.4906C585.458 82.204 584.485 76.0658 582.539 71.076C580.632 66.0467 577.792 62.245 574.019 59.6709C570.285 57.0572 565.678 55.7504 560.196 55.7504C554.715 55.7504 550.088 57.0572 546.314 59.6709C542.581 62.245 539.741 66.0467 537.794 71.076C535.888 76.0658 534.935 82.204 534.935 89.4906C534.935 96.7772 535.888 102.935 537.794 107.964C539.741 112.954 542.581 116.756 546.314 119.37C550.088 121.944 554.715 123.231 560.196 123.231C565.678 123.231 570.285 121.944 574.019 119.37C577.792 116.756 580.632 112.954 582.539 107.964C584.485 102.935 585.458 96.7772 585.458 89.4906Z" fill="#0B387B"/>
<path d="M634.864 150.318V28.6632H722.804V55.2752H667.991V76.1846H718.276V102.797H667.991V123.706H722.565V150.318H634.864Z" fill="#0B387B"/>
<path d="M853.149 74.2837H819.546C819.307 71.5117 818.672 68.997 817.639 66.7397C816.646 64.4825 815.256 62.542 813.469 60.9184C811.721 59.2551 809.596 57.9879 807.094 57.1167C804.591 56.2058 801.751 55.7504 798.574 55.7504C793.013 55.7504 788.306 57.0968 784.453 59.7897C780.64 62.4826 777.741 66.3437 775.755 71.3731C773.809 76.4024 772.835 82.4416 772.835 89.4906C772.835 96.9356 773.828 103.173 775.814 108.202C777.84 113.192 780.76 116.954 784.573 119.488C788.386 121.983 792.973 123.231 798.335 123.231C801.394 123.231 804.135 122.854 806.557 122.102C808.98 121.31 811.085 120.181 812.873 118.716C814.66 117.251 816.11 115.489 817.222 113.429C818.374 111.331 819.149 108.974 819.546 106.361L853.149 106.598C852.751 111.746 851.302 116.994 848.799 122.34C846.297 127.646 842.742 132.557 838.135 137.071C833.567 141.546 827.907 145.15 821.154 147.882C814.402 150.615 806.557 151.981 797.621 151.981C786.42 151.981 776.371 149.585 767.473 144.794C758.616 140.002 751.605 132.953 746.442 123.647C741.318 114.34 738.756 102.955 738.756 89.4906C738.756 75.947 741.377 64.5419 746.62 55.2752C751.863 45.9689 758.934 38.9397 767.831 34.1876C776.728 29.3959 786.658 27 797.621 27C805.326 27 812.416 28.0494 818.89 30.1483C825.365 32.2471 831.045 35.3162 835.93 39.3555C840.816 43.3553 844.748 48.2856 847.727 54.1466C850.706 60.0075 852.513 66.7199 853.149 74.2837Z" fill="#0B387B"/>
<path d="M868.177 150.318V28.6632H901.304V76.1846H945.154V28.6632H978.28V150.318H945.154V102.797H901.304V150.318H868.177Z" fill="#0B387B"/>
<path d="M989.005 28.6632H1025.94L1049.78 78.0854H1050.73L1074.56 28.6632H1111.5L1066.7 112.063V150.318H1033.81V112.063L989.005 28.6632Z" fill="#0B387B"/>
<path d="M396.637 229.934H375.5V175.865H396.423C402.074 175.865 406.956 176.948 411.069 179.112C415.2 181.26 418.383 184.357 420.618 188.406C422.871 192.436 423.998 197.267 423.998 202.9C423.998 208.532 422.88 213.372 420.645 217.42C418.41 221.45 415.244 224.548 411.149 226.713C407.054 228.86 402.217 229.934 396.637 229.934ZM390.414 217.473H396.101C398.819 217.473 401.135 217.042 403.048 216.179C404.98 215.317 406.446 213.829 407.448 211.717C408.467 209.605 408.976 206.666 408.976 202.9C408.976 199.133 408.458 196.194 407.421 194.082C406.401 191.97 404.899 190.482 402.914 189.62C400.947 188.758 398.533 188.326 395.672 188.326H390.414V217.473Z" fill="#0B387B"/>
<path d="M430.898 229.934V175.865H470.491V187.693H445.813V196.986H468.452V208.813H445.813V218.106H470.384V229.934H430.898Z" fill="#0B387B"/>
<path d="M492.909 175.865L504.175 213.988H504.604L515.871 175.865H532.716L514.583 229.934H494.197L476.064 175.865H492.909Z" fill="#0B387B"/>
<path d="M538.007 229.934V175.865H577.6V187.693H552.921V196.986H575.561V208.813H552.921V218.106H577.492V229.934H538.007Z" fill="#0B387B"/>
<path d="M584.996 229.934V175.865H599.911V218.106H622.121V229.934H584.996Z" fill="#0B387B"/>
<path d="M679.229 202.9C679.229 208.919 678.04 213.997 675.662 218.133C673.283 222.251 670.073 225.375 666.032 227.505C661.99 229.617 657.484 230.673 652.513 230.673C647.505 230.673 642.981 229.608 638.94 227.479C634.916 225.331 631.715 222.199 629.337 218.08C626.976 213.944 625.796 208.884 625.796 202.9C625.796 196.88 626.976 191.811 629.337 187.693C631.715 183.557 634.916 180.433 638.94 178.32C642.981 176.191 647.505 175.126 652.513 175.126C657.484 175.126 661.99 176.191 666.032 178.32C670.073 180.433 673.283 183.557 675.662 187.693C678.04 191.811 679.229 196.88 679.229 202.9ZM663.886 202.9C663.886 199.661 663.448 196.933 662.572 194.715C661.713 192.48 660.435 190.79 658.736 189.646C657.055 188.485 654.98 187.904 652.513 187.904C650.045 187.904 647.961 188.485 646.263 189.646C644.582 190.79 643.303 192.48 642.427 194.715C641.568 196.933 641.139 199.661 641.139 202.9C641.139 206.138 641.568 208.875 642.427 211.11C643.303 213.328 644.582 215.018 646.263 216.179C647.961 217.323 650.045 217.895 652.513 217.895C654.98 217.895 657.055 217.323 658.736 216.179C660.435 215.018 661.713 213.328 662.572 211.11C663.448 208.875 663.886 206.138 663.886 202.9Z" fill="#0B387B"/>
<path d="M686.13 229.934V175.865H709.842C713.92 175.865 717.487 176.657 720.545 178.241C723.603 179.825 725.982 182.052 727.68 184.921C729.379 187.79 730.229 191.142 730.229 194.979C730.229 198.851 729.352 202.204 727.6 205.038C725.865 207.872 723.424 210.054 720.277 211.585C717.148 213.117 713.491 213.882 709.306 213.882H695.143V202.477H706.302C708.054 202.477 709.547 202.178 710.781 201.58C712.033 200.964 712.99 200.092 713.651 198.966C714.331 197.839 714.671 196.511 714.671 194.979C714.671 193.43 714.331 192.11 713.651 191.019C712.99 189.91 712.033 189.066 710.781 188.485C709.547 187.886 708.054 187.587 706.302 187.587H701.044V229.934H686.13Z" fill="#0B387B"/>
<path d="M735.701 175.865H754.263L767.031 206.49H767.675L780.443 175.865H799.006V229.934H784.413V198.675H783.984L771.753 229.512H762.954L750.722 198.464H750.293V229.934H735.701V175.865Z" fill="#0B387B"/>
<path d="M806.074 229.934V175.865H845.666V187.693H820.988V196.986H843.628V208.813H820.988V218.106H845.559V229.934H806.074Z" fill="#0B387B"/>
<path d="M900.595 175.865V229.934H888.149L868.299 201.527H867.977V229.934H853.063V175.865H865.724L885.252 204.167H885.681V175.865H900.595Z" fill="#0B387B"/>
<path d="M906.148 187.693V175.865H953.895V187.693H937.371V229.934H922.672V187.693H906.148Z" fill="#0B387B"/>
<path d="M974.556 229.934V175.865H989.47V218.106H1011.68V229.934H974.556Z" fill="#0B387B"/>
<path d="M1009.64 187.693V175.865H1057.39V187.693H1040.87V229.934H1026.17V187.693H1009.64Z" fill="#0B387B"/>
<path d="M1084.14 229.934H1063V175.865H1083.92C1089.58 175.865 1094.46 176.948 1098.57 179.112C1102.7 181.26 1105.88 184.357 1108.12 188.406C1110.37 192.436 1111.5 197.267 1111.5 202.9C1111.5 208.532 1110.38 213.372 1108.15 217.42C1105.91 221.45 1102.75 224.548 1098.65 226.713C1094.56 228.86 1089.72 229.934 1084.14 229.934ZM1077.92 217.473H1083.6C1086.32 217.473 1088.64 217.042 1090.55 216.179C1092.48 215.317 1093.95 213.829 1094.95 211.717C1095.97 209.605 1096.48 206.666 1096.48 202.9C1096.48 199.133 1095.96 196.194 1094.92 194.082C1093.9 191.97 1092.4 190.482 1090.42 189.62C1088.45 188.758 1086.03 188.326 1083.17 188.326H1077.92V217.473Z" fill="#0B387B"/>
</svg>
